<?xml version="1.0" standalone="no"?><!-- Generator: Gravit.io --><svg xmlns="http://www.w3.org/2000/svg" xmlns:xlink="http://www.w3.org/1999/xlink" style="isolation:isolate" viewBox="218.5 32 537.5 440.351" width="537.5" height="440.351"><defs><clipPath id="_clipPath_o4O3N4YKRtDjjaW2sHxrc5npI9dirvKi"><rect x="218.5" y="32" width="537.5" height="440.351"/></clipPath></defs><g clip-path="url(#_clipPath_o4O3N4YKRtDjjaW2sHxrc5npI9dirvKi)"><g style="isolation:isolate"><g style="isolation:isolate"><path d=" M 376.367 423.268 L 404.266 382 Q 432.373 372.906 437.238 371 Q 453.598 364.592 454.992 346 Q 454.142 370.996 438.083 385 Q 416.803 403.558 376.367 423.268 Z " fill="rgb(171,35,40)" vector-effect="non-scaling-stroke" stroke-width="3" stroke="rgb(255,255,255)" stroke-linejoin="miter" stroke-linecap="square" stroke-miterlimit="3"/><path d=" M 437.326 464.969 Q 437.283 464.985 437.238 465 L 437.238 423.268 Q 464.024 387.999 484.543 370.75 L 437.326 464.969 L 437.326 464.969 Z " fill="rgb(171,35,40)" vector-effect="non-scaling-stroke" stroke-width="3" stroke="rgb(255,255,255)" stroke-linejoin="miter" stroke-linecap="square" stroke-miterlimit="3"/><path d=" M 484.351 371.133 Q 463.899 388.385 437.238 423.268 L 376.367 423.268 Q 419.267 402.287 438.929 384 C 453.385 370.555 456.093 352.138 454.992 331 Q 453.302 298.572 425.402 292 L 425.402 184 L 578.165 183.93 L 484.351 371.133 L 484.351 371.133 Z " fill="rgb(171,35,40)" vector-effect="non-scaling-stroke" stroke-width="3" stroke="rgb(255,255,255)" stroke-linejoin="miter" stroke-linecap="square" stroke-miterlimit="3"/><path d=" M 394.589 188 C 366.628 189.465 337.935 190.371 315.582 190 C 284.974 189.491 255.755 187.059 227.884 183.85 C 221.44 183.108 221.305 187.465 227.884 195 C 246.181 215.957 268.424 239.99 299.78 261 C 331.348 282.151 364.403 290.531 397.749 289 C 407.565 289.081 417.317 290.091 425.402 292 L 425.402 174 C 422.058 177.606 418.379 179.616 414.341 180 L 399.33 180 C 395.758 180.299 394.186 182.975 394.589 188 Z " fill="rgb(171,35,40)" vector-effect="non-scaling-stroke" stroke-width="3" stroke="rgb(255,255,255)" stroke-linejoin="miter" stroke-linecap="square" stroke-miterlimit="3"/><path d=" M 578.13 184 L 425.402 184 Q 425.402 173.025 425.402 166 C 425.428 164.686 426.008 164.039 427.093 164 L 588.153 164 L 578.13 184 L 578.13 184 Z " fill="rgb(171,35,40)" vector-effect="non-scaling-stroke" stroke-width="3" stroke="rgb(255,255,255)" stroke-linejoin="miter" stroke-linecap="square" stroke-miterlimit="3"/><path d=" M 392.332 272.103 Q 392.332 239.28 392.332 188 C 392.432 181.627 393.753 180.064 398.348 180.088 Q 403.297 180.037 411.03 179.959 C 417.045 179.817 420.313 178.748 425.402 174 Q 425.402 245.949 425.402 292 C 413.36 289.525 409.188 289.443 396.657 289 Q 392.223 286.071 392.332 272.103 Z " fill="rgb(171,35,40)" vector-effect="non-scaling-stroke" stroke-width="3" stroke="rgb(255,255,255)" stroke-linejoin="miter" stroke-linecap="square" stroke-miterlimit="3"/></g><g style="isolation:isolate"><rect x="376.455" y="423.268" width="60.871" height="41.464" transform="matrix(1,0,0,1,0,0)" fill="rgb(171,35,40)" vector-effect="non-scaling-stroke" stroke-width="3" stroke="rgb(255,255,255)" stroke-linejoin="miter" stroke-linecap="square" stroke-miterlimit="2"/><rect x="599.56" y="423.536" width="60.871" height="41.464" transform="matrix(1,0,0,1,0,0)" fill="rgb(121,125,125)"/><path d=" M 660.431 423.268 L 632.532 382 Q 604.425 372.906 599.56 371 Q 583.2 364.592 581.806 346 Q 582.656 370.996 598.715 385 Q 619.996 403.558 660.431 423.268 Z " fill="rgb(96,100,100)"/><path d=" M 437.326 464.969 C 445.981 462.045 451.587 457.389 454.146 451 Q 456.706 444.611 479.509 439 Q 500.655 436.025 518.399 436 Q 536.143 435.975 557.289 439 Q 577.888 441.684 582.652 451 Q 587.416 460.316 599.56 465 L 599.56 423.536 C 585.813 404.542 578.688 396.247 559.825 378 C 536.853 355.778 525.58 354.425 518.399 354 C 509.061 353.985 497.783 359.547 484.543 370.75 L 437.326 464.969 L 437.326 464.969 Z " fill="rgb(143,147,147)"/><path d=" M 578.165 183.85 L 751.773 183.85 Q 754.085 183.747 755.155 182.85 Q 755.939 182.192 756 179.85 Q 756 171.314 756 165.85 C 755.992 164.597 755.42 163.92 754.309 163.85 L 588.188 163.85 L 578.165 183.85 L 578.165 183.85 Z " fill="rgb(143,147,147)"/><path d=" M 484.351 371.133 C 497.673 359.82 509.015 354.131 518.399 354 Q 534.878 353.766 559.825 378 C 578.461 396.103 585.105 404.735 599.56 423.536 L 660.431 423.536 Q 642.384 414.372 626.614 405 C 615.334 398.296 611.729 395.259 602.097 388 C 594.907 382.582 586.379 372.033 584.343 362 C 581.108 346.064 581.365 341.423 581.806 331 C 584.574 265.669 589.971 250.215 639.296 233 Q 653.861 227.916 744.974 207 Q 750.609 206.003 750.892 199 Q 751.222 193.087 751.738 183.85 L 578.165 183.93 L 484.351 371.133 L 484.351 371.133 Z " fill="rgb(158,162,162)"/><g transform="matrix(0.449,-0.894,0.894,0.449,474.272,290.53)"><text transform="matrix(1,0,0,1,0,31.484)" style="font-family:'Agency FB';font-weight:400;font-size:32px;font-style:normal;fill:#ffffff;stroke:none;">Student</text></g><g transform="matrix(0.449,-0.894,0.894,0.449,505.77,328.021)"><text transform="matrix(1,0,0,1,0,31.484)" style="font-family:'Agency FB';font-weight:400;font-size:32px;font-style:normal;fill:#ffffff;stroke:none;">Makerspace</text></g><g transform="matrix(1,0,0,1,312.038,51.045)"><text transform="matrix(1,0,0,1,0,81.76)" style="font-family:'Agency FB';font-weight:700;font-size:82px;font-style:normal;fill:#ab2328;stroke:none;">Forge</text></g><g transform="matrix(1,0,0,1,248.147,32)"><text transform="matrix(1,0,0,1,0,51.848)" style="font-family:'Agency FB';font-weight:700;font-size:52px;font-style:normal;fill:#ab2328;stroke:none;">The </text></g><g transform="matrix(1,0,0,1,604.455,423.804)"><text transform="matrix(1,0,0,1,0,35.42)" style="font-family:'Agency FB';font-weight:400;font-size:36px;font-style:normal;fill:#b9b9b9;stroke:none;">MILL</text></g></g><line x1="587.724" y1="163" x2="434.702" y2="469" vector-effect="non-scaling-stroke" stroke-width="5" stroke="rgb(255,255,255)" stroke-linejoin="miter" stroke-linecap="square" stroke-miterlimit="3"/></g><g style="isolation:isolate"/><g style="isolation:isolate"/></g></svg>