<?xml version="1.0" standalone="no"?>
<!DOCTYPE svg PUBLIC "-//W3C//DTD SVG 20010904//EN"
 "http://www.w3.org/TR/2001/REC-SVG-20010904/DTD/svg10.dtd">
<svg version="1.0" xmlns="http://www.w3.org/2000/svg"
 width="545.000000pt" height="545.000000pt" viewBox="0 0 545.000000 545.000000"
 preserveAspectRatio="xMidYMid meet">
<metadata>
Created by potrace 1.11, written by Peter Selinger 2001-2013
</metadata>
<g transform="translate(0.000000,545.000000) scale(0.100000,-0.100000)"
fill="#000000" stroke="none">
<path d="M2071 4251 c-8 -5 -15 -29 -16 -52 -2 -24 -3 -47 -4 -51 -1 -3 -20
-16 -44 -27 -35 -17 -62 -21 -139 -21 -105 0 -137 -13 -141 -57 -1 -13 -6 -23
-12 -24 -5 0 -37 -2 -70 -5 -183 -12 -709 -18 -875 -9 -197 10 -308 17 -327
20 -12 2 -61 7 -110 10 -48 4 -95 9 -104 10 -9 2 -51 6 -93 10 -182 17 -145
-57 204 -405 357 -357 681 -556 1031 -634 131 -29 192 -35 414 -41 171 -6 180
-6 271 -25 144 -30 238 -115 274 -250 19 -71 20 -80 21 -175 3 -159 -19 -226
-91 -288 -41 -35 -89 -55 -298 -123 l-113 -36 -42 -62 c-23 -33 -46 -68 -52
-77 -5 -9 -51 -77 -100 -150 l-91 -134 2 -210 c1 -115 2 -213 3 -217 0 -5 140
-8 310 -8 l308 0 59 31 c58 29 124 91 124 114 0 40 155 115 275 132 17 2 44 6
60 8 162 24 457 24 625 0 14 -2 44 -6 67 -9 146 -20 218 -55 269 -132 23 -35
58 -70 92 -92 l55 -37 312 -1 312 -2 0 212 c0 151 -3 215 -12 226 -9 11 -169
249 -261 388 -1 2 -82 30 -180 63 -226 76 -262 99 -306 195 -21 45 -23 62 -22
224 2 508 68 730 254 864 64 46 196 108 312 147 87 29 653 173 727 185 19 3
45 10 58 15 13 5 23 6 23 4 0 -2 11 0 26 5 14 6 39 12 57 15 91 16 193 46 209
62 17 18 24 59 27 171 1 35 4 42 21 42 14 0 20 7 21 23 4 115 2 160 -6 165 -5
4 -380 7 -832 7 -452 1 -826 4 -829 8 -11 10 -1637 8 -1653 -2z"/>
</g>
</svg>
